<svg width="162" height="48" viewBox="0 0 162 48" fill="none" xmlns="http://www.w3.org/2000/svg">
<rect x="0.25" y="0.25" width="161.5" height="47.5" rx="7.75" fill="black" stroke="white" stroke-width="0.5"/>
<g clip-path="url(#clip0_302_4)">
<path d="M21 24.5C21 22.9529 21.6321 21.4692 22.7574 20.3752C23.8826 19.2813 25.4087 18.6667 27 18.6667C28.5913 18.6667 30.1174 19.2813 31.2426 20.3752C32.3679 21.4692 33 22.9529 33 24.5C33 26.0471 32.3679 27.5308 31.2426 28.6248C30.1174 29.7188 28.5913 30.3334 27 30.3334C25.4087 30.3334 23.8826 29.7188 22.7574 28.6248C21.6321 27.5308 21 26.0471 21 24.5V24.5Z" fill="#1ABCFE"/>
<path d="M9 36.1666C9 34.6195 9.63214 33.1358 10.7574 32.0419C11.8826 30.9479 13.4087 30.3333 15 30.3333H21V36.1666C21 37.7137 20.3679 39.1975 19.2426 40.2914C18.1174 41.3854 16.5913 42 15 42C13.4087 42 11.8826 41.3854 10.7574 40.2914C9.63214 39.1975 9 37.7137 9 36.1666V36.1666Z" fill="#0ACF83"/>
<path d="M21 7V18.6667H27C28.5913 18.6667 30.1174 18.0521 31.2426 16.9581C32.3679 15.8642 33 14.3804 33 12.8333C33 11.2862 32.3679 9.80251 31.2426 8.70854C30.1174 7.61458 28.5913 7 27 7H21Z" fill="#FF7262"/>
<path d="M9 12.8333C9 14.3804 9.63214 15.8642 10.7574 16.9581C11.8826 18.0521 13.4087 18.6667 15 18.6667H21V7H15C13.4087 7 11.8826 7.61458 10.7574 8.70854C9.63214 9.80251 9 11.2862 9 12.8333V12.8333Z" fill="#F24E1E"/>
<path d="M9 24.5C9 26.0471 9.63214 27.5308 10.7574 28.6248C11.8826 29.7188 13.4087 30.3334 15 30.3334H21V18.6667H15C13.4087 18.6667 11.8826 19.2813 10.7574 20.3752C9.63214 21.4692 9 22.9529 9 24.5V24.5Z" fill="#A259FF"/>
</g>
<path d="M40.3182 10.0653V9.18182H44.9602V10.0653H43.1619V15H42.1165V10.0653H40.3182ZM45.8551 15V9.18182H48.0369C48.4839 9.18182 48.8589 9.25947 49.1619 9.41477C49.4669 9.57008 49.697 9.78788 49.8523 10.0682C50.0095 10.3466 50.0881 10.6714 50.0881 11.0426C50.0881 11.4157 50.0085 11.7396 49.8494 12.0142C49.6922 12.2869 49.4602 12.4981 49.1534 12.6477C48.8466 12.7955 48.4697 12.8693 48.0227 12.8693H46.4688V11.9943H47.8807C48.142 11.9943 48.3561 11.9583 48.5227 11.8864C48.6894 11.8125 48.8125 11.7055 48.892 11.5653C48.9735 11.4233 49.0142 11.2491 49.0142 11.0426C49.0142 10.8362 48.9735 10.66 48.892 10.5142C48.8106 10.3665 48.6866 10.2547 48.5199 10.179C48.3532 10.1013 48.1383 10.0625 47.875 10.0625H46.9091V15H45.8551ZM48.8608 12.3636L50.3011 15H49.125L47.7102 12.3636H48.8608ZM50.4339 9.18182H51.6243L53.0476 11.7557H53.1044L54.5277 9.18182H55.718L53.6016 12.8295V15H52.5504V12.8295L50.4339 9.18182ZM59.5028 9.18182V15H58.4489V9.18182H59.5028ZM60.3885 10.0653V9.18182H65.0305V10.0653H63.2322V15H62.1868V10.0653H60.3885ZM73.1087 12.0909C73.1087 12.7178 72.9912 13.2547 72.7564 13.7017C72.5234 14.1468 72.2053 14.4877 71.8018 14.7244C71.4003 14.9612 70.9448 15.0795 70.4354 15.0795C69.9259 15.0795 69.4695 14.9612 69.0661 14.7244C68.6645 14.4858 68.3464 14.1439 68.1115 13.6989C67.8786 13.2519 67.7621 12.7159 67.7621 12.0909C67.7621 11.464 67.8786 10.928 68.1115 10.483C68.3464 10.036 68.6645 9.69413 69.0661 9.45739C69.4695 9.22064 69.9259 9.10227 70.4354 9.10227C70.9448 9.10227 71.4003 9.22064 71.8018 9.45739C72.2053 9.69413 72.5234 10.036 72.7564 10.483C72.9912 10.928 73.1087 11.464 73.1087 12.0909ZM72.049 12.0909C72.049 11.6496 71.9799 11.2775 71.8416 10.9744C71.7053 10.6695 71.5159 10.4394 71.2734 10.2841C71.031 10.1269 70.7517 10.0483 70.4354 10.0483C70.1191 10.0483 69.8397 10.1269 69.5973 10.2841C69.3549 10.4394 69.1645 10.6695 69.0263 10.9744C68.8899 11.2775 68.8217 11.6496 68.8217 12.0909C68.8217 12.5322 68.8899 12.9053 69.0263 13.2102C69.1645 13.5133 69.3549 13.7434 69.5973 13.9006C69.8397 14.0559 70.1191 14.1335 70.4354 14.1335C70.7517 14.1335 71.031 14.0559 71.2734 13.9006C71.5159 13.7434 71.7053 13.5133 71.8416 13.2102C71.9799 12.9053 72.049 12.5322 72.049 12.0909ZM77.7727 9.18182H78.8267V12.983C78.8267 13.3996 78.7282 13.7661 78.5312 14.0824C78.3362 14.3987 78.0616 14.6458 77.7074 14.8239C77.3532 15 76.9394 15.0881 76.4659 15.0881C75.9905 15.0881 75.5758 15 75.2216 14.8239C74.8674 14.6458 74.5928 14.3987 74.3977 14.0824C74.2027 13.7661 74.1051 13.3996 74.1051 12.983V9.18182H75.1591V12.8949C75.1591 13.1373 75.2121 13.3532 75.3182 13.5426C75.4261 13.732 75.5777 13.8807 75.7727 13.9886C75.9678 14.0947 76.1989 14.1477 76.4659 14.1477C76.733 14.1477 76.964 14.0947 77.1591 13.9886C77.3561 13.8807 77.5076 13.732 77.6136 13.5426C77.7197 13.3532 77.7727 13.1373 77.7727 12.8949V9.18182ZM79.7166 10.0653V9.18182H84.3587V10.0653H82.5604V15H81.5149V10.0653H79.7166Z" fill="white"/>
<path d="M41.0043 33V22.8182H47.527V24.3643H42.8487V27.1286H47.0795V28.6747H42.8487V33H41.0043ZM49.1278 33V25.3636H50.9276V33H49.1278ZM50.0327 24.2798C49.7476 24.2798 49.5024 24.1854 49.2969 23.9964C49.0914 23.8042 48.9886 23.5739 48.9886 23.3054C48.9886 23.0336 49.0914 22.8033 49.2969 22.6143C49.5024 22.4221 49.7476 22.326 50.0327 22.326C50.321 22.326 50.5663 22.4221 50.7685 22.6143C50.974 22.8033 51.0767 23.0336 51.0767 23.3054C51.0767 23.5739 50.974 23.8042 50.7685 23.9964C50.5663 24.1854 50.321 24.2798 50.0327 24.2798ZM56.0993 36.0227C55.4529 36.0227 54.8978 35.9349 54.4338 35.7592C53.9698 35.5869 53.5969 35.3549 53.3152 35.0632C53.0334 34.7715 52.8379 34.4484 52.7285 34.0938L54.3493 33.701C54.4222 33.8501 54.5282 33.9976 54.6674 34.1435C54.8066 34.2926 54.9939 34.4152 55.2292 34.5114C55.4679 34.6108 55.7678 34.6605 56.1291 34.6605C56.6395 34.6605 57.0621 34.5362 57.3968 34.2876C57.7316 34.0424 57.899 33.638 57.899 33.0746V31.6278H57.8095C57.7167 31.8134 57.5808 32.004 57.4018 32.1996C57.2261 32.3951 56.9925 32.5592 56.7008 32.6918C56.4125 32.8243 56.0495 32.8906 55.612 32.8906C55.0254 32.8906 54.4934 32.7531 54.0162 32.478C53.5422 32.1996 53.1644 31.7853 52.8826 31.2351C52.6042 30.6816 52.465 29.9889 52.465 29.157C52.465 28.3184 52.6042 27.6108 52.8826 27.0341C53.1644 26.4541 53.5439 26.0149 54.0211 25.7166C54.4984 25.415 55.0304 25.2642 55.617 25.2642C56.0645 25.2642 56.4324 25.3404 56.7207 25.4929C57.0124 25.642 57.2444 25.8227 57.4167 26.0348C57.5891 26.2436 57.72 26.4408 57.8095 26.6264H57.9089V25.3636H59.6838V33.1243C59.6838 33.7772 59.528 34.3175 59.2164 34.745C58.9049 35.1726 58.479 35.4924 57.9387 35.7045C57.3985 35.9167 56.7853 36.0227 56.0993 36.0227ZM56.1142 31.4787C56.4953 31.4787 56.8201 31.3859 57.0886 31.2003C57.3571 31.0147 57.5609 30.7479 57.7001 30.3999C57.8393 30.0518 57.9089 29.6342 57.9089 29.147C57.9089 28.6664 57.8393 28.2455 57.7001 27.8842C57.5642 27.523 57.362 27.2429 57.0936 27.044C56.8284 26.8419 56.502 26.7408 56.1142 26.7408C55.7131 26.7408 55.3784 26.8452 55.1099 27.054C54.8414 27.2628 54.6393 27.5495 54.5034 27.9141C54.3675 28.2753 54.2995 28.6863 54.2995 29.147C54.2995 29.6143 54.3675 30.0237 54.5034 30.375C54.6426 30.723 54.8464 30.9948 55.1149 31.1903C55.3867 31.3826 55.7198 31.4787 56.1142 31.4787ZM61.5282 33V25.3636H63.2484V26.6612H63.3379C63.497 26.2237 63.7605 25.8823 64.1284 25.6371C64.4963 25.3885 64.9354 25.2642 65.4458 25.2642C65.9629 25.2642 66.3987 25.3902 66.7534 25.642C67.1113 25.8906 67.3632 26.2304 67.5091 26.6612H67.5886C67.7576 26.237 68.0427 25.8989 68.4437 25.647C68.8481 25.3918 69.327 25.2642 69.8805 25.2642C70.5832 25.2642 71.1565 25.4863 71.6007 25.9304C72.0448 26.3745 72.2669 27.0225 72.2669 27.8743V33H70.4622V28.1527C70.4622 27.6787 70.3362 27.3324 70.0843 27.1136C69.8324 26.8916 69.5242 26.7805 69.1596 26.7805C68.7254 26.7805 68.3857 26.9164 68.1404 27.1882C67.8985 27.4567 67.7775 27.8063 67.7775 28.2372V33H66.0126V28.0781C66.0126 27.6837 65.8933 27.3688 65.6547 27.1335C65.4193 26.8982 65.1111 26.7805 64.7299 26.7805C64.4714 26.7805 64.2361 26.8468 64.024 26.9794C63.8118 27.1087 63.6428 27.2926 63.5169 27.5312C63.3909 27.7666 63.3279 28.0417 63.3279 28.3565V33H61.5282ZM76.2901 33.1541C75.8062 33.1541 75.3704 33.0679 74.9826 32.8956C74.5981 32.7199 74.2932 32.4614 74.0678 32.12C73.8458 31.7786 73.7347 31.3577 73.7347 30.8572C73.7347 30.4264 73.8143 30.0701 73.9734 29.7884C74.1325 29.5066 74.3496 29.2812 74.6246 29.1122C74.8997 28.9432 75.2096 28.8156 75.5543 28.7294C75.9023 28.6399 76.262 28.5753 76.6332 28.5355C77.0806 28.4891 77.4435 28.4477 77.7219 28.4112C78.0004 28.3714 78.2025 28.3118 78.3285 28.2322C78.4577 28.1494 78.5224 28.0218 78.5224 27.8494V27.8196C78.5224 27.4451 78.4113 27.1551 78.1893 26.9496C77.9672 26.7441 77.6474 26.6413 77.2298 26.6413C76.7889 26.6413 76.4393 26.7375 76.1808 26.9297C75.9255 27.1219 75.7532 27.349 75.6637 27.6108L73.9833 27.3722C74.1159 26.9081 74.3346 26.5204 74.6396 26.2088C74.9445 25.8939 75.3174 25.6586 75.7582 25.5028C76.199 25.3438 76.6862 25.2642 77.2198 25.2642C77.5877 25.2642 77.954 25.3073 78.3185 25.3935C78.6831 25.4796 79.0162 25.6222 79.3178 25.821C79.6194 26.0166 79.8614 26.2834 80.0437 26.6214C80.2293 26.9595 80.3221 27.3821 80.3221 27.8892V33H78.592V31.951H78.5323C78.4229 32.1631 78.2688 32.362 78.07 32.5476C77.8744 32.7299 77.6275 32.8774 77.3292 32.9901C77.0342 33.0994 76.6879 33.1541 76.2901 33.1541ZM76.7575 31.8317C77.1187 31.8317 77.4319 31.7604 77.6971 31.6179C77.9622 31.4721 78.1661 31.2798 78.3086 31.0412C78.4544 30.8026 78.5273 30.5424 78.5273 30.2607V29.3608C78.471 29.4072 78.3749 29.4503 78.239 29.4901C78.1064 29.5298 77.9573 29.5646 77.7915 29.5945C77.6258 29.6243 77.4618 29.6508 77.2994 29.674C77.137 29.6972 76.9961 29.7171 76.8768 29.7337C76.6083 29.7701 76.368 29.8298 76.1559 29.9126C75.9438 29.9955 75.7764 30.1115 75.6538 30.2607C75.5311 30.4065 75.4698 30.5954 75.4698 30.8274C75.4698 31.1589 75.5908 31.4091 75.8327 31.5781C76.0747 31.7472 76.3829 31.8317 76.7575 31.8317ZM85.6839 33V22.8182H89.5021C90.2843 22.8182 90.9406 22.964 91.4709 23.2557C92.0045 23.5473 92.4072 23.9484 92.679 24.4588C92.9541 24.9659 93.0916 25.5426 93.0916 26.1889C93.0916 26.8419 92.9541 27.4219 92.679 27.929C92.4039 28.4361 91.9979 28.8355 91.4609 29.1271C90.924 29.4155 90.2628 29.5597 89.4773 29.5597H86.9467V28.0433H89.2287C89.6861 28.0433 90.0606 27.9638 90.3523 27.8047C90.6439 27.6456 90.8594 27.4268 90.9986 27.1484C91.1411 26.87 91.2124 26.5502 91.2124 26.1889C91.2124 25.8277 91.1411 25.5095 90.9986 25.2344C90.8594 24.9593 90.6423 24.7455 90.3473 24.593C90.0556 24.4373 89.6795 24.3594 89.2188 24.3594H87.5284V33H85.6839ZM94.6142 33V25.3636H96.3592V26.6364H96.4387C96.5779 26.1955 96.8166 25.8558 97.1547 25.6172C97.496 25.3752 97.8855 25.2543 98.323 25.2543C98.4224 25.2543 98.5334 25.2592 98.6561 25.2692C98.782 25.2758 98.8864 25.2874 98.9693 25.304V26.9595C98.8931 26.933 98.7721 26.9098 98.6064 26.8899C98.444 26.8667 98.2865 26.8551 98.1341 26.8551C97.8059 26.8551 97.5109 26.9264 97.2491 27.0689C96.9906 27.2081 96.7868 27.402 96.6376 27.6506C96.4885 27.8991 96.4139 28.1858 96.4139 28.5107V33H94.6142ZM103.181 33.1491C102.436 33.1491 101.789 32.9851 101.243 32.657C100.696 32.3288 100.271 31.8698 99.9698 31.2798C99.6715 30.6899 99.5224 30.0005 99.5224 29.2116C99.5224 28.4228 99.6715 27.7318 99.9698 27.1385C100.271 26.5452 100.696 26.0845 101.243 25.7564C101.789 25.4283 102.436 25.2642 103.181 25.2642C103.927 25.2642 104.574 25.4283 105.12 25.7564C105.667 26.0845 106.09 26.5452 106.388 27.1385C106.69 27.7318 106.841 28.4228 106.841 29.2116C106.841 30.0005 106.69 30.6899 106.388 31.2798C106.09 31.8698 105.667 32.3288 105.12 32.657C104.574 32.9851 103.927 33.1491 103.181 33.1491ZM103.191 31.7074C103.596 31.7074 103.934 31.5964 104.206 31.3743C104.477 31.1489 104.68 30.8473 104.812 30.4695C104.948 30.0916 105.016 29.6707 105.016 29.2067C105.016 28.7393 104.948 28.3168 104.812 27.9389C104.68 27.5578 104.477 27.2545 104.206 27.0291C103.934 26.8037 103.596 26.6911 103.191 26.6911C102.777 26.6911 102.432 26.8037 102.157 27.0291C101.886 27.2545 101.682 27.5578 101.546 27.9389C101.413 28.3168 101.347 28.7393 101.347 29.2067C101.347 29.6707 101.413 30.0916 101.546 30.4695C101.682 30.8473 101.886 31.1489 102.157 31.3743C102.432 31.5964 102.777 31.7074 103.191 31.7074ZM112.181 25.3636V26.7557H107.791V25.3636H112.181ZM108.875 23.5341H110.675V30.7031C110.675 30.9451 110.711 31.1307 110.784 31.2599C110.86 31.3859 110.96 31.4721 111.083 31.5185C111.205 31.5649 111.341 31.5881 111.49 31.5881C111.603 31.5881 111.706 31.5798 111.798 31.5632C111.895 31.5466 111.968 31.5317 112.017 31.5185L112.32 32.9254C112.224 32.9586 112.087 32.995 111.908 33.0348C111.732 33.0746 111.517 33.0978 111.262 33.1044C110.811 33.1177 110.405 33.0497 110.044 32.9006C109.682 32.7481 109.396 32.5128 109.183 32.1946C108.975 31.8764 108.872 31.4787 108.875 31.0014V23.5341ZM116.935 33.1491C116.19 33.1491 115.543 32.9851 114.996 32.657C114.45 32.3288 114.025 31.8698 113.724 31.2798C113.425 30.6899 113.276 30.0005 113.276 29.2116C113.276 28.4228 113.425 27.7318 113.724 27.1385C114.025 26.5452 114.45 26.0845 114.996 25.7564C115.543 25.4283 116.19 25.2642 116.935 25.2642C117.681 25.2642 118.327 25.4283 118.874 25.7564C119.421 26.0845 119.844 26.5452 120.142 27.1385C120.444 27.7318 120.594 28.4228 120.594 29.2116C120.594 30.0005 120.444 30.6899 120.142 31.2798C119.844 31.8698 119.421 32.3288 118.874 32.657C118.327 32.9851 117.681 33.1491 116.935 33.1491ZM116.945 31.7074C117.35 31.7074 117.688 31.5964 117.96 31.3743C118.231 31.1489 118.433 30.8473 118.566 30.4695C118.702 30.0916 118.77 29.6707 118.77 29.2067C118.77 28.7393 118.702 28.3168 118.566 27.9389C118.433 27.5578 118.231 27.2545 117.96 27.0291C117.688 26.8037 117.35 26.6911 116.945 26.6911C116.531 26.6911 116.186 26.8037 115.911 27.0291C115.639 27.2545 115.436 27.5578 115.3 27.9389C115.167 28.3168 115.101 28.7393 115.101 29.2067C115.101 29.6707 115.167 30.0916 115.3 30.4695C115.436 30.8473 115.639 31.1489 115.911 31.3743C116.186 31.5964 116.531 31.7074 116.945 31.7074ZM125.935 25.3636V26.7557H121.545V25.3636H125.935ZM122.629 23.5341H124.429V30.7031C124.429 30.9451 124.465 31.1307 124.538 31.2599C124.614 31.3859 124.714 31.4721 124.836 31.5185C124.959 31.5649 125.095 31.5881 125.244 31.5881C125.357 31.5881 125.46 31.5798 125.552 31.5632C125.648 31.5466 125.721 31.5317 125.771 31.5185L126.074 32.9254C125.978 32.9586 125.841 32.995 125.662 33.0348C125.486 33.0746 125.271 33.0978 125.015 33.1044C124.565 33.1177 124.159 33.0497 123.797 32.9006C123.436 32.7481 123.149 32.5128 122.937 32.1946C122.729 31.8764 122.626 31.4787 122.629 31.0014V23.5341ZM128.559 35.8636C128.314 35.8636 128.087 35.8438 127.878 35.804C127.672 35.7675 127.508 35.7244 127.386 35.6747L127.803 34.2727C128.065 34.349 128.299 34.3854 128.504 34.3821C128.71 34.3788 128.89 34.3142 129.046 34.1882C129.205 34.0656 129.339 33.8601 129.449 33.5717L129.603 33.1591L126.834 25.3636H128.743L130.503 31.1307H130.582L132.347 25.3636H134.261L131.204 33.9247C131.061 34.3291 130.872 34.6754 130.637 34.9638C130.402 35.2554 130.113 35.4775 129.772 35.63C129.434 35.7857 129.03 35.8636 128.559 35.8636ZM135.507 35.8636V25.3636H137.277V26.6264H137.381C137.474 26.4408 137.605 26.2436 137.774 26.0348C137.943 25.8227 138.172 25.642 138.46 25.4929C138.748 25.3404 139.116 25.2642 139.564 25.2642C140.154 25.2642 140.685 25.415 141.159 25.7166C141.637 26.0149 142.015 26.4574 142.293 27.044C142.575 27.6274 142.716 28.3433 142.716 29.1918C142.716 30.0303 142.578 30.7429 142.303 31.3295C142.028 31.9162 141.653 32.3636 141.179 32.6719C140.705 32.9801 140.168 33.1342 139.569 33.1342C139.131 33.1342 138.768 33.0613 138.48 32.9155C138.191 32.7696 137.959 32.594 137.784 32.3885C137.611 32.1797 137.477 31.9825 137.381 31.7969H137.306V35.8636H135.507ZM137.272 29.1818C137.272 29.6757 137.341 30.1082 137.48 30.4794C137.623 30.8506 137.827 31.1406 138.092 31.3494C138.36 31.5549 138.685 31.6577 139.066 31.6577C139.464 31.6577 139.797 31.5516 140.066 31.3395C140.334 31.1241 140.536 30.8307 140.672 30.4595C140.811 30.085 140.881 29.6591 140.881 29.1818C140.881 28.7079 140.813 28.2869 140.677 27.919C140.541 27.5511 140.339 27.2628 140.071 27.054C139.802 26.8452 139.467 26.7408 139.066 26.7408C138.682 26.7408 138.355 26.8419 138.087 27.044C137.819 27.2462 137.615 27.5296 137.475 27.8942C137.34 28.2588 137.272 28.688 137.272 29.1818ZM147.637 33.1491C146.872 33.1491 146.211 32.9901 145.654 32.6719C145.1 32.3504 144.674 31.8963 144.376 31.3097C144.078 30.7197 143.929 30.0253 143.929 29.2266C143.929 28.4411 144.078 27.7517 144.376 27.1584C144.678 26.5618 145.099 26.0978 145.639 25.7663C146.179 25.4316 146.814 25.2642 147.543 25.2642C148.014 25.2642 148.458 25.3404 148.875 25.4929C149.296 25.642 149.667 25.8741 149.989 26.1889C150.314 26.5038 150.569 26.9048 150.755 27.392C150.94 27.8759 151.033 28.4527 151.033 29.1222V29.674H144.774V28.4609H149.308C149.305 28.1162 149.23 27.8097 149.084 27.5412C148.938 27.2694 148.734 27.0556 148.473 26.8999C148.214 26.7441 147.913 26.6662 147.568 26.6662C147.2 26.6662 146.877 26.7557 146.598 26.9347C146.32 27.1103 146.103 27.3423 145.947 27.6307C145.795 27.9157 145.717 28.2289 145.713 28.5703V29.6293C145.713 30.0734 145.795 30.4545 145.957 30.7727C146.119 31.0876 146.346 31.3295 146.638 31.4986C146.93 31.6643 147.271 31.7472 147.662 31.7472C147.924 31.7472 148.161 31.7107 148.373 31.6378C148.585 31.5616 148.769 31.4505 148.925 31.3047C149.081 31.1589 149.199 30.9782 149.278 30.7628L150.958 30.9517C150.852 31.3958 150.65 31.7836 150.352 32.1151C150.057 32.4432 149.679 32.6984 149.218 32.8807C148.758 33.0597 148.231 33.1491 147.637 33.1491Z" fill="white"/>
<defs>
<clipPath id="clip0_302_4">
<rect width="24" height="35" fill="white" transform="translate(9 7)"/>
</clipPath>
</defs>
</svg>
